<?xml version="1.0" encoding="UTF-8"?>
<svg id="_レイヤー_1" data-name="レイヤー 1" xmlns="http://www.w3.org/2000/svg" viewBox="0 0 561.05 283.16">
  <defs>
    <style>
      .cls-1 {
        fill: #fff;
        stroke-width: 0px;
      }
    </style>
  </defs>
  <g>
    <path class="cls-1" d="M22.03,185.06c.14-.16.27-.31.41-.47-.2-.88-.39-1.76-.59-2.64,1.8-2.12,3.62-4.15,5.46-6.12,1.16-.61,2.32-1.19,3.49-1.76-.03-.31-.06-.63-.09-.94.21.1.43.21.64.31-.04-.39-.08-.79-.12-1.18,3.83-3.55,7.85-6.4,12.07-8.54.06-.44.13-.87.19-1.31.21.05.42.1.63.16-.03-.38-.07-.77-.1-1.15.79-.4,1.57-.8,2.36-1.18.07-.35.15-.71.22-1.06,2.03-1.53,4.08-2.98,6.14-4.36.03-.28.06-.57.09-.85,1.7-2.08,3.41-4.1,5.14-6.06.02-.5.03-1,.05-1.5.21.08.43.16.64.25.46-3.73.94-7.44,1.42-11.13-.6-.25-1.19-.49-1.79-.73-7.95-1.4-15.86-2.16-23.72-2.14-.39-.24-.78-.49-1.18-.73-.06.52-.11,1.04-.17,1.55-6.86-.11-13.69.38-20.48,1.55-.55-.19-1.11-.37-1.66-.55.04.32.07.64.11.96-.22-.09-.45-.18-.67-.26-.04-.32-.07-.64-.11-.96-1.99-1.02-3.97-2-5.97-2.94.01-.32.03-.65.04-.97-1.22-.31-2.35-1.16-3.39-2.59-.11-.89-.22-1.78-.33-2.67.36-1.07.71-2.13,1.07-3.19,9.62-4.71,19.58-6.99,29.76-7.15,10.18-.17,20.47,1.14,30.83,3.6.01-.64.02-1.27.04-1.91-.2-1.45-.41-2.89-.61-4.34.13-.44.27-.87.4-1.31-1.51-4.83-3.03-9.61-4.56-14.32-.3-.35-.6-.71-.9-1.06-.2-.52-.4-1.04-.6-1.57-.86-.47-1.71-.92-2.57-1.38-.03-.45-.07-.89-.1-1.34.08-.47.15-.94.23-1.41-.36-.38-.72-.75-1.07-1.13.01-.57.03-1.14.04-1.71.72-1.4,1.45-2.78,2.18-4.16,2.23.19,4.47.43,6.71.73.03-.41.06-.82.09-1.23-.75-.46-1.51-.91-2.26-1.36.08.4.16.79.25,1.19-3.51-.9-6.86-1.12-10.03-.64-.15.22-.3.45-.45.67-2.08.25-4.16.55-6.23.91-.01-.15-.03-.3-.04-.45-.4-.16-.8-.31-1.2-.47-.44-.02-.89-.05-1.33-.07-.02.36-.05.72-.07,1.07-2.24.34-4.46.75-6.68,1.22-.09-.32-.17-.65-.26-.97-.57-.18-1.14-.36-1.71-.54-2.11,1.13-4.38,1.54-6.84,1.2-.03-.84-.06-1.68-.09-2.52,4.56-4.25,9.37-7.59,14.4-10.05,5.03-2.46,10.21-4.42,15.51-5.93.53.33,1.06.67,1.59,1.01.03-.34.07-.68.1-1.02.74-.76,1.48-1.52,2.22-2.26-1.26-1.08-2.53-2.16-3.79-3.22-.12-.91-.24-1.83-.37-2.74.09-1.09.19-2.18.28-3.26-.12-.13-.25-.27-.37-.4-.02-.22-.03-.44-.05-.66,1.21-1.44,2.43-2.85,3.66-4.23,2.17-.1,4.69.61,7.55,2.12-.03.47-.06.94-.09,1.41.65.38,1.31.76,1.96,1.14.44-.37.88-.74,1.32-1.1,1.54.7,3.08,1.43,4.61,2.16.02.29.03.57.05.86.44.68.88,1.37,1.32,2.05.02.36.04.71.06,1.07,3.43,1.84,6.33,4.73,8.68,8.56.11,1.16.22,2.32.32,3.48,1.81,2.12,2.64,4.29,2.5,6.51-1.88,1.51-2.9,3.87-3.1,7.03.45,1.31.9,2.61,1.35,3.91-.49.31-.98.62-1.48.93-1.2-.46-2.4-.91-3.59-1.36-1.04-.76-2.09-1.52-3.14-2.27-.73-.08-1.46-.16-2.19-.24-.82-.61-1.63-1.21-2.45-1.81-.95-.05-1.91-.1-2.86-.13-.04.26-.08.51-.12.77-1.89.08-3.78.2-5.66.36-.14.42-.28.84-.42,1.27,2.29,2.87,4.7,5.11,7.23,6.76,1.43,2.66,2.84,5.32,4.25,7.97,3.54,8.5,5.06,16.6,4.7,24.44.55.3,1.11.6,1.66.9,3.94,1.32,8.1,3.36,12.47,6.09,4.37,2.73,8.57,5.11,12.64,7.15-.05.3-.1.6-.14.91.22.14.44.28.66.42,4.16,1.69,8.46,4.28,12.85,7.68.83.87,1.65,1.73,2.47,2.6,1.92.87,3.83,1.75,5.75,2.64,3.72,3.76,7.31,7.68,10.76,11.72.1.94.19,1.89.28,2.83,1.19.91,2.38,1.81,3.57,2.71.06,2.54.34,4.84.84,6.91-.06.21-.12.42-.18.64-.21-.14-.43-.27-.64-.41-.38.07-.76.14-1.14.21-.06.09-.11.18-.17.27-.91-.52-1.82-1.04-2.74-1.56-.29,1.2-.58,2.4-.86,3.61.09,1.32.18,2.63.26,3.95-.21-.19-.42-.39-.63-.59-1.43-1.02-2.87-2.04-4.3-3.07-.43-.2-.85-.41-1.28-.61-.05.22-.11.44-.17.66-1.59-.93-3.19-1.86-4.79-2.78-1.44-1.21-2.87-2.42-4.31-3.64-.11.06-.21.13-.32.19-4.7-4.45-9.53-8.53-14.48-12.16-4.95-3.62-9.97-7.08-15.06-10.32,1.94,1.08,3.88,2.18,5.82,3.29,8.07,5.85,16.08,11.92,24.03,18.02,0-.39,0-.78,0-1.17-4.49-3.44-8.92-6.98-13.29-10.61-4.37-3.63-8.74-6.92-13.07-9.81-5.57-3.32-11.15-6.5-16.75-9.49-.16.96-.32,1.93-.49,2.89-.22-.11-.43-.22-.65-.32-.2,1.23-.4,2.46-.59,3.69-.22-.18-.44-.35-.66-.53-.03.41-.06.81-.09,1.22-.21-.1-.43-.21-.65-.31-.17,2.73-.94,4.81-2.31,6.3-.31,0-.62,0-.93,0-.2,1.11-.39,2.23-.58,3.35-.27-.12-.53-.23-.8-.35-.08.46-.15.93-.23,1.39-.73.67-1.47,1.36-2.2,2.05-.26-.04-.52-.07-.78-.11-.75,1.19-1.49,2.4-2.23,3.61-.85.31-1.7.64-2.55.97.02.3.04.59.06.89-.26-.1-.52-.19-.79-.29-.03.28-.06.56-.1.83-.42-.15-.84-.31-1.26-.46.08.39.16.78.24,1.17-1.59.59-3.18,1.22-4.75,1.88-.05.64-.11,1.29-.16,1.93-.46,0-.91,0-1.37.01.02.3.05.6.07.9-4.1,2.13-8.24,3.91-12.46,5.32-.37-.23-.75-.45-1.12-.68-3.16.9-6.33,2.06-9.53,3.5-3.19,1.44-6.38,2.93-9.56,4.48Z"/>
    <path class="cls-1" d="M204.28,264.67c.05-.4.1-.8.15-1.19-.4-.09-.79-.18-1.19-.28-.45-1.34-.88-2.85-1.3-4.51-.29-.13-.59-.26-.88-.39.17-2.35-.23-4.6-1.23-6.8-.3-.14-.59-.29-.89-.43.11-1.02.01-2-.3-2.95-.15-.05-.3-.1-.45-.15.02-.68.05-1.37.07-2.05-.35-.12-.71-.24-1.06-.36-.11-.94-.22-1.89-.33-2.84-.25-.09-.51-.18-.76-.27-.26-.58-.51-1.15-.77-1.73,0-.49,0-.97,0-1.46-.4-.26-.79-.52-1.19-.78-.03-.77-.06-1.54-.08-2.31-.15-.06-.31-.12-.46-.18-.17-.45-.34-.9-.5-1.35-.97-2.03-1.53-4.02-1.67-5.95-.31-.13-.62-.27-.93-.4-1.22-4.17-2.52-8.39-3.9-12.66-.42-.21-.84-.41-1.26-.62-.56.12-1.11.24-1.67.36-.07.19-.14.38-.21.57-.37-.07-.75-.15-1.12-.22-.27.66-.72.89-1.36.68-1.8-.52-3.61-1.05-5.41-1.59-.01.17-.02.33-.03.5.05.03.1.06.16.08,0,.06,0,.11-.01.17-.95-.32-1.9-.65-2.85-.99-.03.45-.06.9-.09,1.35-1.15-.44-2.31-.88-3.46-1.33-.73-2.15-1.95-4.29-3.67-6.45-.71-.76-1.43-1.52-2.14-2.29-.19-.58-.37-1.17-.56-1.75-.25-.33-.51-.65-.76-.98-.28-1-.55-2-.83-3-.46-.57-.92-1.14-1.38-1.72-.09-1.5-.19-3-.29-4.5.12-.23.24-.46.36-.69,1.26,1.01,2.61,1.45,4.04,1.35-.17-.94.06-1.27.71-1.01.48.29.96.57,1.44.86,2.6,2.68,5.19,5.3,7.77,7.85,2.46,1.03,4.75,2.01,6.89,2.92.02-.22.03-.44.05-.66.91.32,1.83.64,2.74.95,0-.11.02-.22.03-.33-.93-3.56-1.75-7.27-2.47-11.13-.26-.21-.53-.41-.79-.62.27.15.54.3.81.46.01-.17.02-.33.04-.5-.14-.31-.29-.62-.43-.94.22.12.43.25.65.37.08-1.1.56-1.46,1.43-1.08.32.24.64.47.96.71.03-.33.05-.66.08-.98.54.3,1.08.61,1.62.91.18-.13.36-.26.54-.38,1.67,1.61,3.08,3.62,4.22,6.01,1.69,3.13,3.36,6.2,5.01,9.2.37.18.74.36,1.12.53,3.98.34,8.12.85,12.43,1.43.13-.16.26-.32.39-.48.59.24,1.18.47,1.77.7.03-.25.06-.5.09-.75,2.32.29,4.82.59,7.48.89,2.66.3,5.41.72,8.26,1.22.02-.14.04-.29.07-.43,4.22.29,8.68.52,13.36.54.35.25.69.49,1.04.73.43,1.28.98,2.48,1.66,3.57,1.26.93,2.51,1.83,3.75,2.68.43.3.86.59,1.29.88-.16.8-.32,1.59-.48,2.39-.33.57-.66,1.13-.99,1.7-.33.03-.66.06-.99.09-.14.17-.28.34-.42.52-1.52.91-3.04,1.8-4.55,2.67-.85-.07-1.69-.16-2.54-.26-.3-.13-.6-.26-.9-.39-.78.14-1.56.26-2.34.39.02-.14.05-.28.07-.41-.69-.1-1.38-.21-2.06-.32-3.21.32-6.26.31-9.16,0-1.47.33-2.99.29-4.57-.15-.01.1-.03.19-.04.29-.97-.07-1.95-.15-2.92-.24-.44.43-.88.85-1.32,1.28-.22-.02-.43-.03-.65-.05,0,.05-.01.1-.02.15-.1-.03-.21-.06-.31-.1-.52-.21-1.03-.43-1.55-.65-2.58,1.33-5.51,1.8-8.82,1.3-.02.2-.05.41-.07.61,1.02,3.35,2.03,6.65,3.02,9.88.3.15.6.3.91.44-.04.3-.07.6-.11.9.1.03.21.06.31.09.14.61.27,1.22.41,1.83.16.41.32.82.48,1.22.2.06.41.12.61.18.06.33.13.65.19.98.12.29.24.58.36.87,1.8.8,3.5,1.83,5.11,3.09-.26,3.34.77,6.43,3.06,9.03.22.28.43.55.65.83.15.02.3.04.45.07.28,1.2.56,2.4.83,3.59-.15-.02-.3-.04-.45-.05-.5,1.29-1.39,2.44-2.65,3.44-.69.2-1.38.4-2.06.6-.02.14-.04.29-.06.43-.67.1-1.34.2-2.01.29-.01.1-.03.19-.04.29-.99-.16-1.98-.33-2.97-.51-.59-.91-1.49-1.39-2.7-1.44-.47.1-.94.2-1.41.3-.34.28-.68.56-1.02.84ZM203.51,226.42c1.91-1.51,3.84-3.01,5.79-4.51.11.04.21.08.32.11.26-.33.52-.65.78-.97.21.07.42.15.63.22,1.41-1.17,2.84-2.34,4.27-3.51.22.02.44.04.66.06.47-.56.93-1.13,1.4-1.69-.21-.07-.43-.14-.64-.21-.01.1-.03.2-.04.29-3.75-.22-7.44-.49-11.06-.78-.02.15-.04.31-.05.46-.49-.09-.98-.18-1.46-.27.02-.15.04-.31.05-.46-.16-.07-.32-.13-.48-.2-.6-.09-1.2-.18-1.8-.27-.03.31-.07.62-.1.93-.92-.23-1.83-.46-2.74-.69-.03.31-.07.62-.1.93,1.49,3.63,2.96,7.19,4.41,10.66.06-.03.12-.06.17-.09Z"/>
  </g>
  <g>
    <path class="cls-1" d="M283.75,266.37c-2.58-.6-5.17-1.25-7.75-1.94-.29-.58-.57-1.16-.86-1.74-.7-.35-1.41-.7-2.12-1.05-.46-.42-.92-.83-1.39-1.25-4.63-.43-8.97-1.3-13.02-2.57-1.24-1.75-1.82-3.63-1.71-5.62,1.02-1.31,1.33-3.04.93-5.17-.17-.59-.33-1.17-.5-1.76.4-1.35.8-2.71,1.2-4.07.44.01.88.02,1.32.04-.04-.58-.08-1.17-.12-1.75.38,0,.75.01,1.13.02.22-1.27.45-2.54.67-3.81-.21-.32-.42-.64-.63-.96-.25,0-.5,0-.75,0-.12.1-.24.21-.36.31-.11-1.59-.23-3.18-.34-4.77.59-1.42,1.18-2.85,1.78-4.29.55-.32,1.09-.65,1.64-.97.44-5.43.89-10.88,1.35-16.34.11-5.87.32-11.65.64-17.35.32-5.69.42-11.44.29-17.22-.19-.84-.37-1.68-.56-2.52-.58.05-1.16.1-1.75.15,0-.11-.01-.21-.02-.32.42-.52.84-1.03,1.26-1.55.08-.81.15-1.62.23-2.43-.45.04-.91.08-1.36.12.03.37.05.74.08,1.12-.22-1.27-.43-2.53-.65-3.8.1-.38.21-.77.31-1.15-.13.01-.26.02-.39.03-.31-4.57-1.23-8.88-2.76-12.91-1.53-4.04-4.19-7.64-7.99-10.93.29-.49.59-.99.88-1.48,0,.11.02.21.02.32.39-.02.79-.05,1.18-.08.26-.92.53-1.84.79-2.77.26-.02.53-.04.79-.06-.03-.48-.07-.95-.1-1.43,1.12-.09,2.24-.19,3.36-.3,5.32.22,10.17,1.27,14.55,3.33.15.3.3.6.45.9,1.34.25,2.68.5,4.02.73,2.12,2.2,3.68,4.61,4.7,7.25,1.01,2.64,1.73,5.5,2.18,8.59.32,5.53.63,11.06.95,16.59.16.57.33,1.14.49,1.71-.09.73-.18,1.46-.27,2.19-.13.03-.26.05-.39.07.05.92.11,1.84.16,2.77.3.76.61,1.53.91,2.29-.11.4-.21.81-.32,1.21.16.57.32,1.14.49,1.72-.3,3.84-.6,7.68-.9,11.51.18.95.37,1.91.55,2.86-.6,5.25-1.13,10.53-1.59,15.84.28,4.82.56,9.64.84,14.46-.1.4-.21.79-.31,1.19.26,2.31.52,4.62.78,6.94.38-.05.75-.1,1.13-.15,8.96-6.66,18.15-14.06,27.57-22.14,9.42-8.07,19.45-15.8,30.04-23.07,3.9-3.03,7.88-5.99,11.93-8.89,5.05-4.25,10.2-8.24,15.42-11.95,0,.12,0,.24,0,.35-2.22,1.97-4.45,3.92-6.66,5.85,0,.23,0,.47.01.7.7-.31,1.41-.62,2.11-.94-3.94,3.06-7.73,6.24-11.38,9.53-3.66,3.29-7.23,6.55-10.73,9.76,0,.23.01.46.02.69-.32.12-.63.25-.95.37,0,.23.01.46.02.69-.82.6-1.63,1.2-2.45,1.8,0,.23.01.46.02.69-.57.33-1.13.66-1.7.98.02.51.03,1.03.05,1.54-.13.05-.25.09-.38.14-.51.07-1.02.14-1.53.21-.54,1.06-1.09,2.12-1.63,3.18,0-.11,0-.23-.01-.34-.44.16-.89.32-1.33.47.01.34.02.68.03,1.02-.93.73-1.87,1.46-2.8,2.18-.54.93-1.09,1.86-1.63,2.78-.25.08-.51.17-.76.25,0,.23.02.45.02.68-.91,1.33-1.82,2.65-2.72,3.97-.31.1-.63.2-.94.3.01.34.02.68.04,1.01-.61.71-1.22,1.41-1.83,2.11-.55.62-1.1,1.24-1.65,1.86.01.28.02.56.03.84-.68.43-1.36.86-2.05,1.28-.11.54-.21,1.08-.32,1.62-.55.5-1.1,1-1.65,1.49-.1.65-.2,1.3-.3,1.95,0-.22-.02-.45-.03-.67-.44.12-.88.24-1.32.36-.1.54-.21,1.07-.31,1.61-.12.03-.25.07-.37.1-.51,1.49-1.02,2.98-1.52,4.46-.36.43-.72.86-1.08,1.29-.43.33-.86.66-1.28,1-.33,1.09-.66,2.18-.99,3.27-2.21,2.72-4.42,5.39-6.61,8.01-1.88,1.44-3.75,2.85-5.62,4.24-.11.3-.22.59-.33.89-1.27.94-2.53,1.86-3.8,2.77-1.02,1.92-2.04,3.82-3.06,5.71-.67.25-1.34.5-2.01.75.01.22.02.43.04.65-1.78,1.63-4.02,2.59-6.74,2.81Z"/>
    <path class="cls-1" d="M502.84,200.96c-10.57-4.72-22.31-6.49-35.14-5.4-10.28,3.23-20.3,7-30.07,11.05-9.77,4.04-20.14,7.93-31.13,11.53-5.75,1.18-10.94.95-15.59-.63-.26-2.05-.53-4.11-.8-6.16,5.77-2.54,11.55-5.13,17.33-7.73,2.77-4.18,5.55-8.38,8.34-12.6-5.41-2.33-6.75-7.05-3.94-14.38-.76.3-1.53.59-2.29.89-6.24,7.7-13.88,13.06-23,16.11-3.81.04-4.67-2.2-2.54-6.76,3.48-2.73,6.97-5.49,10.46-8.28.06-.51.12-1.02.18-1.54,2.16-1.5,4.33-3.01,6.49-4.53.19-.64.38-1.28.57-1.91,3.32-2.19,6.64-4.39,9.96-6.6.07-.52.13-1.04.19-1.56,6.66-6.75,14.51-11.46,23.47-13.82-.16,2.26-.31,4.52-.47,6.77-4.04,7.56-8.05,15.08-12.02,22.55,2.53-.18,5.06-.35,7.59-.5,2.13,1.27,2.61,3.62,1.44,7.01-2.31,4.33-4.62,8.65-6.91,12.96,1.63-.6,3.27-1.2,4.9-1.8,9.69-4.27,19.18-8.42,28.47-12.31,9.28-3.9,18.73-7.5,28.35-10.6.22-.85.43-1.71.65-2.56-.57-1.78-1.14-3.55-1.71-5.31-3.03.49-6.06,1.03-9.09,1.61-6.86,2.62-13.51,7.03-19.9,13.07-.39.6-.78,1.21-1.17,1.81-1.39.5-2.78,1.01-4.17,1.52-2.19-.17-4.38-.31-6.58-.44-2.61-9.33-2.34-20.2.92-32.89.64-.42,1.29-.83,1.93-1.25.63-3.06,1.25-6.12,1.88-9.18-.4-2.85-.79-5.7-1.19-8.54.99-1.47,1.98-2.93,2.96-4.4,1.68-.78,3.37-1.55,5.05-2.31,4.34-11.22,10.4-22.66,18.23-34.17-.72.25-1.44.5-2.16.75-7.48,5.98-14.93,12.11-22.35,18.3-1.22,2.86-3.64,4.7-7.27,5.58-1.48-.22-2.97-.43-4.45-.64-.74-2.83-1.48-5.64-2.22-8.45,3.09-2.87,6.19-5.73,9.29-8.59.27-.89.55-1.78.83-2.67-1.67-1.12-3.35-2.22-5.03-3.31.03-1.89.06-3.79.08-5.68,3.75-5.8,5.74-10.97,5.95-15.48-.92-.09-1.84-.19-2.76-.27.03-2.15.07-4.31.1-6.46.94-1.31,1.89-2.62,2.84-3.93,2.6-1.61,5.2-3.2,7.81-4.79,6.03-1.3,12.05-2.48,18.07-3.5,2.6,1.23,3.24,3.98,1.94,8.16-6.5,7.48-10.39,14.58-11.72,21.19,1.05-.43,2.11-.86,3.16-1.28,2.32-1.59,4.64-3.16,6.97-4.72,8.65-11.21,17.39-22.32,26.21-33.22-4.3.68-8.6,1.47-12.91,2.36.68-2.83,1.37-5.66,2.06-8.49,1.56-1.39,3.13-2.77,4.7-4.15.57-1.22,1.14-2.44,1.71-3.65,5.31-2.4,10.62-4.67,15.94-6.78,4.33.83,9.06,1.65,14.17,2.57-.09.43-.17.86-.26,1.28.8-.17,1.6-.33,2.4-.49.56,2.13,1.12,4.26,1.68,6.4-1.56,2.3-3.12,4.61-4.67,6.93-2.02,1.04-4.04,2.11-6.06,3.2-3.65,5.27-8.05,10.21-13.2,14.93,1.5.06,3,.14,4.5.24.04.58.08,1.16.12,1.75.72-.17,1.45-.35,2.18-.51-.08,1.82-.15,3.63-.23,5.45-2.17,3.55-4.33,7.11-6.48,10.67-3.39,1.94-6.77,3.93-10.15,5.98-7.09,9.65-14.11,19.41-21.07,29.22,1.82-.57,3.63-1.12,5.45-1.66,1.98-1.84,3.97-3.66,5.96-5.47,4.53-2.8,9.07-5.52,13.62-8.15.01-.27.02-.53.03-.8.72-.18,1.43-.36,2.15-.54,1.68-.11,3.36-.2,5.04-.27.62.6,1.24,1.2,1.86,1.8,4.39-.15,7.22,1.35,8.5,4.35.32,1.52.64,3.04.96,4.56-5.28,6.18-8.62,12.68-10.03,19.31-1.53,14.17-3.05,28.31-4.55,42.41,1.64-.24,3.28-.46,4.92-.66,13.48-4.35,27.39-6.98,41.68-6.92,1.11.53,2.21,1.07,3.32,1.62,1.03-.28,2.06-.55,3.08-.81.23.42.46.85.68,1.27-1.33.04-2.66.09-3.99.17-.11.84-.22,1.67-.33,2.51,1.44.21,2.88.43,4.32.68.46-.27.92-.53,1.38-.8-5.03.59-10.06,1.43-15.09,2.48-1.25,1.04-2.5,2.09-3.75,3.14-2.15.24-4.3.51-6.45.82-.17.91-.34,1.81-.51,2.72.44-.05.88-.1,1.32-.15-1.45.22-2.91.46-4.36.72-.23.78-.45,1.55-.68,2.33-.31.04-.63.08-.94.13.2-.3.4-.6.61-.9-1.13.02-2.26.04-3.38.08-3.2,9.42-7.79,18.37-13.73,27.01-2.82.75-5.63,1.55-8.45,2.41ZM409.41,143.64c.06-.52.13-1.04.2-1.57-.97.18-1.94.35-2.9.53.13-.55.26-1.11.39-1.66-4.65,2.2-8.46,2.51-11.45.98-5.45-1.28-9.18-4.17-11.18-8.69,1.03-1.65,2.06-3.31,3.09-4.98,13.61-5.75,27.23-11.73,40.86-17.49,1.23,0,2.47-.01,3.7-.01-.09,2.6-.19,5.2-.28,7.8-2.05,3.76-4.09,7.51-6.12,11.24-2.98,1.98-5.96,3.96-8.94,5.94-.59.91-1.17,1.81-1.75,2.72-1.88,1.73-3.75,3.46-5.62,5.19ZM487.45,150.14c-.12-2.05-.24-4.09-.36-6.14-1.15.33-2.3.67-3.45,1.02-6.42,3.01-12.84,6.2-19.24,9.52-.43,1.96-.85,3.93-1.28,5.89,1.14-.27,2.28-.54,3.43-.8,7.17-4.13,14.14-7.32,20.91-9.49ZM474.2,122.44c5.77-2.93,11.55-5.74,17.34-8.39.22-.93.45-1.86.67-2.79-.15-1.25-.3-2.51-.45-3.76-3.28.27-6.56.6-9.85.99-4.59,3.24-9.18,6.55-13.75,9.91-1.04,3.07-2.08,6.14-3.11,9.2,1.03-.25,2.06-.49,3.09-.73,2.02-1.49,4.04-2.97,6.06-4.44ZM487.97,134.51c.37-1.7.75-3.39,1.12-5.09.04-1.32.09-2.64.13-3.96-1.09.19-2.18.39-3.27.59-7.4,4.15-13.48,9.7-18.22,16.38.7-.22,1.41-.45,2.11-.67,6.04-2.56,12.08-5,18.12-7.25Z"/>
  </g>
  <g>
    <path class="cls-1" d="M174.69,73.18c-.35-.36-.7-.71-1.05-1.07-.02-2.15-.46-4.34-1.3-6.58-.38-.42-.76-.83-1.13-1.25.07-.29.14-.59.22-.88-.39-.46-.78-.92-1.16-1.38.04-.38.08-.75.12-1.12-.39-.37-.78-.75-1.16-1.12.08-.23.16-.45.25-.67.13-.1.26-.2.4-.3-.55-.57-1.09-1.15-1.63-1.72.05-.09.1-.18.15-.27,2.05.68,4.12,1.54,6.24,2.58,2.32-3.46,4.61-6.95,6.87-10.47-.19-.11-.38-.22-.57-.33-.18.08-.36.16-.54.23-.25.07-.49.14-.74.21-1.96.04-3.93.02-5.91-.05-.14.12-.28.25-.43.37-.11-.07-.22-.14-.33-.21-.05.09-.1.18-.15.27-.4-.08-.81-.15-1.21-.23-.2.15-.39.3-.59.45-.11-.07-.22-.14-.33-.22-.33.58-.86.91-1.59.98-.88-.19-1.76-.39-2.65-.61-.66-.59-1.32-1.18-1.97-1.78-.25-.68-.49-1.36-.72-2.04.1-.4.2-.8.29-1.2-.38-.63-.76-1.26-1.13-1.88.17-.56.35-1.13.53-1.69.84-.03,1.68-.07,2.51-.12,3.04.97,6.04,1.64,8.96,2.04,2.92.4,5.84.91,8.77,1.53.08-.02.15-.04.23-.05,1.32-2.82,2.64-5.63,3.96-8.44-.15-.08-.3-.16-.45-.24-1.01.05-2.02.09-3.04.11-.75.69-1.5,1.37-2.26,2.04-2.22.69-4.46.11-6.59-1.71-.76-.9-1.51-1.8-2.25-2.7-.04-.49-.09-.99-.13-1.48.22-.19.45-.37.67-.56.06-.82.13-1.64.2-2.45-.26-.67-.52-1.34-.77-2.02.22-.49.44-.99.66-1.48,1.32-.44,2.44-1.15,3.39-2.11.77.24,1.54.47,2.31.69.11.13.22.27.34.4.24.09.47.18.71.27.06.37.13.75.19,1.12.35.22.7.44,1.06.66,1.6.32,3.17.66,4.7,1.02,1.53.36,3.07.67,4.61.94.15-.31.3-.61.46-.92.86-1.92,1.73-3.84,2.6-5.75,1.15-2.07,2.29-4.15,3.43-6.23-.07-1.26.17-2.51.7-3.76.1-.1.2-.19.3-.29.93.21,1.86.4,2.79.57.4.55.8,1.1,1.2,1.65.42.84.86,1.69,1.3,2.54-.31.71-.62,1.42-.93,2.13-1.4,1.56-2.68,3.23-3.83,5.05-1.14,1.82-2.14,3.82-2.96,6.02.31.15.62.29.93.43,2.38.34,4.73,1.02,7.11,2.07.35.46.71.92,1.07,1.38-.07.58-.15,1.17-.22,1.75-.37,0-.73,0-1.1,0-.13.12-.26.25-.39.37-1.47-.17-2.94-.3-4.42-.39-1.48-.09-3-.12-4.57-.1-.41.99-.81,1.97-1.22,2.96-1.17,2.63-2.04,5.29-2.57,8,.21.11.43.21.64.31,2.32.3,4.63.54,6.93.7.88-.92,1.74-1.85,2.6-2.79-.03-.33-.06-.67-.08-1-.1-.04-.21-.09-.31-.13.04-.1.08-.2.11-.31-1.04-1.08-2.06-2.16-3.06-3.26.01-.11.03-.22.05-.33.33-.29.66-.59.99-.89.23.01.46.03.7.04,1.72-.02,3.42.18,5.11.6.98.82,1.97,1.62,2.97,2.42.87-1.96,1.63-3.97,2.3-6.01.66-2.04,1.32-4.08,1.99-6.12-.5-1.67-.63-3.36-.39-5.07,1.18-.47,2.3-.43,3.42.13,1.5.45,2.57,1.49,3.25,3.18.17.36.35.73.53,1.09.32.4.64.8.96,1.21,0,.2,0,.4,0,.61.11.15.23.29.34.44.74,1.06.8,2.2.14,3.42-1.63,3.23-3.2,6.55-4.67,9.99-1.47,3.44-3.08,6.78-4.83,10.01,0,.21,0,.41.01.62-.28.46-.56.93-.85,1.39,0,.21,0,.41.01.62-.82,1.37-1.44,2.84-1.86,4.43-.42,1.59-.96,3.09-1.62,4.5-.83.26-1.67.51-2.51.76-.74.58-1.49,1.15-2.24,1.71-.23-.03-.46-.06-.69-.09-1.12.97-2.41,1.8-3.86,2.47-1.45.67-2.63,1.56-3.54,2.71-1.73.42-3.51.69-5.34.8-1.82.11-3.63-.18-5.4-.86-.49.53-.97,1.06-1.46,1.59-.42-.01-.84-.02-1.26-.04-.04.1-.08.2-.13.3-1.6-.08-3.34-.77-5.19-2.09ZM183.38,70.23c1.12-.08,2.23-.18,3.34-.29.2-.23.4-.46.6-.69.29.09.59.17.88.25,1.51-1.06,2.98-2.18,4.43-3.33,1.44-1.16,2.67-2.5,3.68-4.02-.54-.29-1.07-.59-1.61-.89-.68-.18-1.36-.37-2.03-.57-.54-.73-.74-1.54-.59-2.42-.11-.05-.23-.11-.34-.16-.17-.86-.34-1.71-.5-2.56-.18-.14-.35-.29-.53-.44.11-.27.22-.55.34-.82.31-.42.61-.84.92-1.26.88-.05,1.77-.12,2.64-.19.48.37.96.73,1.44,1.09,1.62.19,3.24.17,4.85-.07,1.03-1.53,1.9-3.18,2.63-4.95-.11-.04-.22-.08-.32-.13-1.66.38-3.33.72-5.02,1.02-.43.64-.86,1.28-1.29,1.92-.17-.07-.33-.15-.49-.22-.23-.16-.46-.32-.68-.48.18-.54.36-1.08.53-1.62-.16-.07-.33-.15-.49-.22-1.7.12-3.42.2-5.15.24-.1.07-.19.14-.29.21-.22.04-.43.08-.65.12-.44.94-.88,1.88-1.33,2.83-.06.3-.12.6-.18.89-1,1.53-1.94,3.17-2.82,4.93-.88,1.76-1.75,3.53-2.6,5.31.06,2.02-.07,4.06-.42,6.11.28.15.55.29.83.44.08-.02.16-.03.25-.05ZM203.89,48.37c.32-.58.63-1.16.95-1.75-.22-.14-.44-.29-.66-.43-.32.49-.64.98-.96,1.48.15.27.3.53.46.8.07-.03.14-.06.21-.09ZM230.01,95.92c-3.19-.89-6.11-2.15-8.71-3.73-2.6-1.58-5.01-3.42-7.2-5.49-.45-.75-.89-1.51-1.32-2.26-.12-.1-.24-.19-.36-.29-1.36-2.13-2.05-4.2-2.11-6.2-.07-2,.07-4.03.38-6.1.23-.37.45-.74.67-1.11,0-.27,0-.53,0-.79,2.36-5,4.46-10.22,6.33-15.6,1.87-5.38,3.67-10.84,5.41-16.36.6-2.97,1.2-5.93,1.81-8.9-.11-2.62-.47-5.21-1.06-7.75.14-.2.28-.4.42-.6.68-.05,1.37-.12,2.04-.19.21.1.41.2.62.29.3,0,.6,0,.89,0,.59.54,1.19,1.08,1.8,1.61.68,1.44,1.4,2.89,2.14,4.33,0,1.01-.01,2.03-.01,3.05-1.99,2.71-3.45,5.9-4.26,9.67-.8,3.77-1.91,7.29-3.38,10.51.18.1.36.2.54.3.17-.02.35-.04.52-.06.25-.27.49-.53.74-.8,1.48-1.08,2.82-2.28,4-3.59,1.18-1.3,1.89-2.91,2.18-4.79.3-.07.59-.14.89-.21.08-.19.16-.38.24-.58.67.04,1.33.08,1.99.11.86.12,1.41.63,1.67,1.54.8.92,1.62,1.84,2.45,2.76.05.86.1,1.72.15,2.58-.49.39-.98.77-1.48,1.15-.34.4-.68.8-1.02,1.19-.51.14-1.01.27-1.52.41-.16.21-.32.42-.49.63-.81-.12-1.6.02-2.38.42-.1.1-.19.2-.29.3-2.68,1.25-5.47,2.31-8.36,3.16-.09.16-.18.31-.26.47,2.94,1.09,5.66,2.49,8.24,4.23.44-.01.88-.02,1.32-.04.65.37,1.31.74,1.97,1.11.89.9,1.8,1.8,2.72,2.7-.01.12-.02.23-.03.35.82.76,1.65,1.52,2.49,2.28.39.82.78,1.63,1.18,2.45.29.24.57.48.86.72-.01.18-.02.35-.03.53-.08.26-.16.52-.23.77-.41.22-.83.44-1.24.65-1.7,1.33-3.87,1.59-6.4.76-1.53-.87-3.04-1.77-4.53-2.67-.21-.3-.41-.61-.62-.92-1.16-1.2-2.3-2.41-3.41-3.62-.88-.19-1.54-.67-1.95-1.41-.26-1.29-.95-2.6-2.07-3.92-.25-.12-.49-.24-.74-.36-.95,3.33-1.91,6.66-2.89,9.97-.17,1.72-.3,3.46-.4,5.22-.1,1.77.41,3.51,1.57,5.23,2.2,2.23,4.97,3.84,8.24,4.72.21-.04.42-.09.63-.13,1.48-3.46,2.91-6.96,4.28-10.49.12.02.25.04.37.07.06-.25.12-.51.18-.76,0,.27,0,.53,0,.8.16.03.31.05.47.08.16-.03.32-.06.48-.09.3.11.61.22.91.33.06-.26.12-.51.17-.77.06.01.12.02.19.03-.02.2-.04.41-.06.61-.05.17-.1.34-.15.51.55.24,1.09.47,1.64.7.04.89.08,1.85.12,2.86-.12.57-.23,1.15-.35,1.72.19.09.37.18.56.27,0,1.04.01,2.07.02,3.11-.1.37-.2.74-.3,1.11.26,1.58.67,3.07,1.24,4.46,1.04.99,2.11,1.98,3.18,2.96.09,1.32.18,2.64.28,3.96-.08.11-.15.22-.23.32-.39,0-.78,0-1.16.01,0,.12-.02.24-.02.35-3.2.3-6.59.37-10.16.17Z"/>
    <path class="cls-1" d="M304.08,96.48c-.95-.37-1.9-.74-2.84-1.12-1.39-2.08-2.99-3.95-4.79-5.64-.41-.09-.82-.18-1.23-.27-.03-.12-.05-.25-.08-.37.02-.23.04-.46.06-.68-.28-.31-.56-.61-.83-.92.16-.38.32-.76.48-1.14.17-.03.34-.06.5-.09-.05-.22-.1-.43-.15-.65.28-.47.55-.93.83-1.4-.04-1.38-.09-2.76-.14-4.14-.06-.12-.12-.24-.18-.35-.32.06-.65.12-.97.18-1.96,1.2-3.99,2.32-6.09,3.35-2.11,1.03-4.33,1.92-6.66,2.65-.17-.01-.34-.03-.51-.04-.27-.41-.53-.83-.79-1.24-.87-.42-1.73-.84-2.59-1.27-.28-.32-.55-.64-.82-.96-.73-.5-1.45-1.01-2.16-1.51-.02-.4-.03-.8-.05-1.21.23-.02.45-.03.68-.05.13-.23.27-.46.4-.68.89-.13,1.78-.27,2.67-.42.94-.03,1.88-.06,2.81-.11,4.06-1.94,8.01-4.05,11.82-6.32-.38-2.51-.78-5.03-1.18-7.55-.12.02-.24.05-.35.07-1.97,1.13-4.15,2.01-6.51,2.64-1.02-.16-2.04-.32-3.05-.49-.15.02-.3.04-.45.06-.08-.27-.15-.55-.23-.82.16-.31.32-.62.48-.92.18-.18.36-.37.54-.56-.05-.12-.1-.24-.15-.36-.09.01-.18.03-.26.04-.15-.36-.31-.72-.46-1.07-.35.05-.7.1-1.05.15-.02-.12-.04-.25-.06-.37.03-.19.05-.39.08-.58-.43-.1-.87-.19-1.3-.29-.13-.27-.26-.53-.39-.8-.72-.06-1.44-.13-2.15-.19-.03-.18-.05-.37-.08-.56-.09.01-.17.02-.26.03.09-.01.17-.02.26-.03.07-.29.15-.58.22-.88.51-.69,1.01-1.39,1.51-2.09-.69-2.18-1.02-4.24-1.03-6.2,0-1.96-.24-3.98-.68-6.07-.19-.03-.38-.06-.57-.1-.28-.78-.56-1.56-.84-2.33.34-.34.68-.68,1.01-1.02.03-.16.05-.33.08-.49.13-.02.25-.04.38-.07.29.01.58.03.87.04-.02-.12-.04-.25-.06-.37.13-.02.25-.05.38-.07,1.45-.01,2.89.24,4.32.78,1.23-1.23,2.63-2.22,4.21-2.99,1.58-.76,2.81-2.05,3.63-3.83,0-.23-.02-.46-.03-.69.31-.69.61-1.39.9-2.09.09-.03.19-.06.28-.09.27-1.13.53-2.27.78-3.41.59-1.94,1.14-3.88,1.64-5.84-.17-.77-.35-1.53-.52-2.3-.09.03-.17.07-.26.1-.43.31-.87.61-1.31.91-.36-.93-.72-1.87-1.08-2.8.12-.15.24-.3.36-.45-.38-.76-.39-1.34-.05-1.75.45-.94,1.26-1.51,2.45-1.72,1.33-.21,2.65-.15,3.97.18,1.52.6,2.61,1.76,3.23,3.49.3,1.67.51,3.23.65,4.67-.15.07-.31.14-.46.2-.43,0-.86.02-1.3.02-.76,2.38-1.86,4.53-3.27,6.43.06.19.12.37.18.56-.33.12-.65.24-.98.35.05.15.1.31.15.46-.12.04-.23.08-.35.12,0,.24,0,.48-.01.72-.12.11-.25.22-.37.33.07.22.13.43.2.65.96-.12,1.93-.26,2.89-.4.39-.35.78-.7,1.16-1.06.2.13.41.26.62.39.22.16.43.32.65.48,1.87.12,3.8.54,5.81,1.26,1.31,1.66,2.57,3.34,3.78,5.05-.83,1-1.89,1.75-3.16,2.24.26,1.48.51,2.96.75,4.45-.14.12-.27.24-.41.36,0,.24,0,.49,0,.73-.13.05-.26.1-.4.15.04.54.09,1.08.13,1.62-.31.39-.63.78-.95,1.17.32,1.27.37,2.57.13,3.88-.59.34-1.19.67-1.79,1,.04,1.08.08,2.15.11,3.23-1.86,1.79-4.02,3.31-6.43,4.51.52,1.82,1.05,3.64,1.58,5.46.31.09.63.18.94.26,1.5-1.37,3.06-2.79,4.69-4.28,1.63-1.49,3.41-2.76,5.35-3.84.43-.08.85-.15,1.28-.23.18-.13.36-.26.54-.4,2,.33,4.08.59,6.22.74.14.19.29.38.43.58.24.93.48,1.87.71,2.8-1.82,2.11-4.18,3.78-7.02,4.97-.2,0-.41,0-.61,0-2.86,2.28-5.82,4.46-8.88,6.54.3.82.6,1.64.9,2.46,1.01,2.86,2.18,5.63,3.52,8.28,1.54,3.6,1.4,7.03-.66,10.23-.73.61-1.7.94-2.88.98ZM280.98,38.92c-1.02-.2-2.04-.41-3.05-.64-.03-.15-.05-.31-.08-.46-.12.02-.25.05-.37.07-1.42-1.13-2.66-2.47-3.73-4-1.02-.52-1.49-1.7-1.47-3.54-.02-.44-.03-.88-.05-1.32-.21-.28-.41-.56-.61-.84-.41-.43-.82-.87-1.23-1.3-.06-.43-.11-.86-.17-1.29.32-.34.64-.68.96-1.02,0-.03,0-.06-.01-.09.62-.12,1.24-.24,1.87-.36.65.06,1.3.12,1.96.17.28-.22.57-.45.85-.67,1.8,1.33,3.69,2.56,5.67,3.69.32,1.03.64,2.06.97,3.09.36,2.53.27,5-.32,7.4-.39.38-.78.75-1.17,1.13ZM288.54,49.61c-.26-.89-.52-1.77-.78-2.66-.48-.02-.95-.04-1.43-.06-.5.47-1.01.94-1.53,1.4.03.67.06,1.35.09,2.02.24.37.49.74.74,1.11.24-.05.49-.1.73-.15.73-.54,1.46-1.09,2.18-1.65ZM290.63,59.02c-.09-.37-.17-.74-.26-1.12-.14-.75-.29-1.5-.43-2.25-.47.1-.95.21-1.43.31-.33.36-.66.72-1,1.08.2,1.06.4,2.12.59,3.18.23-.05.46-.09.69-.14.61-.35,1.22-.7,1.83-1.06ZM286.66,31.14c-.02-.06-.03-.12-.05-.19-.51-.52-1.01-1.04-1.5-1.56-.4-.02-.8-.04-1.2-.07-.11-.14-.21-.27-.31-.41-.09.02-.18.05-.28.07-.94-1.98-1.84-3.88-2.7-5.68,0-.49.02-.99.02-1.48.55-.45,1.09-.9,1.63-1.35,1.02.63,2.15.66,3.35.07.13-.11.27-.22.4-.33.12.03.25.05.37.08.03.12.07.25.1.37.62.2,1.24.4,1.86.59.45,1.1.91,2.2,1.37,3.3.23.03.45.05.68.07.08.28.16.56.24.84-.12.18-.24.35-.36.53-.12.35-.25.69-.37,1.04-.28.94-.57,1.87-.88,2.8-.43.2-.85.39-1.28.59-.3.02-.59.04-.89.06-.07.22-.14.44-.21.66ZM302.94,53.69c-.33-1.15-.67-2.3-1-3.46-.35.11-.7.22-1.06.33-1.71.8-3.33,1.64-4.87,2.52.1.7.21,1.41.31,2.11.11-.03.22-.06.34-.09.85-.29,1.69-.59,2.54-.9.68-.13,1.37-.26,2.05-.4.03.09.06.19.08.28.54-.03,1.08-.06,1.61-.09,0-.1,0-.2,0-.3ZM299.74,44.92s.08-.1.13-.14c-.11-.07-.21-.13-.32-.2-.19-.69-.37-1.38-.56-2.07-.33-.51-.65-1.01-.98-1.52-.92-.45-1.83-.46-2.76-.04-.5.29-.99.57-1.49.85.1.74.19,1.48.29,2.23,1.53,1.5,3.43,1.92,5.63,1.22.02-.11.05-.22.07-.33ZM366.18,72.36c-.79.44-1.59.88-2.38,1.31-.54-.24-1.08-.47-1.62-.71-1.24.41-2.59.83-4.06,1.25-.18-.17-.37-.34-.55-.51-1,.05-1.99.09-2.98.12-2.25-.79-4.48-1.61-6.67-2.46-.16.08-.32.16-.48.24-2.13-2.02-4.77-3.52-7.88-4.55-.18.01-.37.03-.55.04-.33-.29-.67-.57-1-.86-.3.15-.61.29-.92.43-1.55,1.77-2.91,3.65-4.1,5.67-1.19,2.02-2.66,3.87-4.38,5.51.05.12.1.24.15.37-2.19,1.25-4.06,2.68-5.61,4.31-.51.03-1.02.06-1.53.09-.21.14-.42.27-.63.41.37-.43.73-.85,1.09-1.28.06-.64.12-1.28.17-1.92.24-.15.48-.3.72-.45.03-.39.07-.79.1-1.18.24-.15.47-.3.71-.46-.05-.23-.1-.45-.15-.68.66-.76,1.31-1.52,1.95-2.29-.13-.13-.25-.26-.38-.39,2.58-3.85,4.97-7.79,7.16-11.81-.13-.27-.26-.54-.39-.82-1.72-1.19-3.26-2.64-4.65-4.31-1.39-1.68-2.67-3.38-3.84-5.11-.5.22-1,.45-1.5.67-1.56.76-3.13,1.48-4.71,2.18-1.23.35-2.44.42-3.6.23-1.91-.97-3.89-1.81-5.94-2.55-.15-.33-.29-.66-.43-.99-.08-.59-.17-1.19-.25-1.78.22-.15.44-.3.67-.45.11-.28.22-.57.33-.85,1.07.1,2.1-.11,3.07-.63,2-1.62,3.94-3.29,5.83-5.02-.13-.45-.26-.9-.4-1.35-2.23-3.58-4.35-7.25-6.38-11.01-2.04-3.76-4.65-6.74-7.71-9.03.3-.93.88-1.53,1.75-1.8,2.2-.4,4.51-.03,7,1.14,1.47.73,2.61,1.89,3.39,3.52.03.25.07.49.1.74-.2.18-.4.36-.6.54.09.25.18.51.27.76,1.34,1.78,2.63,3.56,3.86,5.33,1.23,1.77,2.44,3.56,3.62,5.36.15-.08.3-.15.45-.23.22-.45.43-.91.64-1.36-.05-.73.23-1.15.86-1.26.17-.78.6-1.33,1.31-1.65.24-.02.48-.04.72-.06-.09-.11-.17-.21-.26-.32.12-.07.24-.14.36-.21-.05-.09-.09-.18-.14-.27.12-.07.24-.14.36-.21.31-.06.62-.13.94-.19-.05-.09-.1-.18-.14-.27.07-.04.14-.08.21-.13.06.12.13.24.19.36.32,0,.64.01.96.02.43.02.85.04,1.28.06,1.31.63,2.75.91,4.29.82.25-.08.51-.16.76-.24,1.39.89,2.67,2.17,3.83,3.86.01.6.02,1.2.03,1.8-.86,1.83-1.9,3.53-3.12,5.09-.45-.44-.93-.44-1.44,0-.87,1.04-1.76,2.07-2.67,3.08.12.24.25.48.37.72,1.62,1.62,3.27,3.22,4.93,4.82.14-.07.28-.15.42-.23.72-2.08,1.38-4.17,2.01-6.27-.2-.59-.39-1.19-.59-1.78.35-.37.71-.74,1.06-1.11.05-.23.09-.45.13-.68.55-.1,1.09-.19,1.64-.29.14-.13.28-.25.41-.38.55.02,1.1.03,1.65.04.53-.02,1.07-.04,1.6-.06.85.55,1.71,1.09,2.58,1.63.03.23.06.45.09.68-.13.09-.26.17-.4.26.32.45.64.89.96,1.34-.4,1.16-.98,2.13-1.71,2.91.05.09.11.18.16.26-.54.54-1.09,1.07-1.63,1.6.01.27.02.54.03.82-.87,1.91-1.78,3.8-2.73,5.68.04.21.08.42.12.63,3.09,1.39,6.44,2.16,10.02,2.25-.08-.39-.15-.78-.23-1.18,1.15-.61,2.02-1.35,2.61-2.21,1.37,1.41,2.75,2.81,4.14,4.2.24-.15.48-.3.71-.45-.06-.09-.11-.17-.17-.26.06-.04.12-.08.18-.11.34.27.69.54,1.03.81.08.32.16.63.23.95,3.51,1.51,6.71,3.44,9.54,5.88-.41,2.34-1.84,4.32-4.25,5.87ZM325.32,26.47c-.03-.22-.06-.44-.09-.66-.27.17-.55.33-.83.5-.45-.6-.89-1.2-1.33-1.8-.43-.02-.86-.04-1.28-.06-1.96-1.35-3.77-2.74-5.44-4.17-.11-.56-.22-1.11-.34-1.67.32-.35.29-.84-.09-1.47.08-.05.17-.1.25-.15,1.16,0,2.24-.3,3.21-.91.89-.65,1.77-1.3,2.65-1.97,1.03-.69,2.22-.78,3.6-.25.45.1.89.2,1.34.3.21.35.43.7.64,1.05.21.39.42.79.63,1.18.13.12.26.23.4.35-.38.77-.48,1.76-.32,2.96-.09.06-.17.12-.26.18.18.25.36.5.54.75.21.15.42.29.63.44-.66.98-1.32,1.95-2.01,2.91.06.85-.35,1.39-1.22,1.61-.23.3-.46.6-.7.9Z"/>
  </g>
</svg>