<?xml version="1.0" encoding="UTF-8" standalone="no"?>
<!DOCTYPE svg PUBLIC "-//W3C//DTD SVG 1.1//EN" "http://www.w3.org/Graphics/SVG/1.1/DTD/svg11.dtd">
<svg viewBox="0 0 512 512" xmlns="http://www.w3.org/2000/svg" style="fill-rule:evenodd;clip-rule:evenodd;stroke-linejoin:round;stroke-miterlimit:1.41421">
  <path d="M0 440V158.738s131.744-11.727 186.883.211c-2.329 9.04-87.554 352.744-87.63 353.051H72a72.003 72.003 0 0 1-72-72zM.003 71.423a72.003 72.003 0 0 1 21.085-50.335A72.003 72.003 0 0 1 72 0h368a72.003 72.003 0 0 1 72 72v368a72.003 72.003 0 0 1-72 72H129.748c4.352-15.755 20.908-82.776 23.655-97.813 80.269-5.595 272.652-27.243 275.57-158 1.481-66.352-59.017-112.721-132.722-143.816C202.908 72.991 79.467 70.234.003 71.423zm214.776 90.033c21.523 2.007 110.962 15.969 161.507 51.474 61.45 43.165 24.516 88.201-14.722 106.241-36.425 16.745-101.235 38.501-192.706 31.97 3.26-11.59 43.656-182.295 45.921-189.685z" style="fill:rgb(254,1,50)"/>
</svg>
